<svg width="20" height="20" viewBox="0 0 20 20" fill="none" xmlns="http://www.w3.org/2000/svg">
<path d="M10.0002 2.19995C7.32649 2.19995 5.12502 2.86906 3.57723 4.15488C2.01184 5.45533 1.2002 7.31734 1.2002 9.504C1.2002 12.1118 2.35467 14.2288 4.49525 15.4988L4.91497 18.1261C4.96076 18.4127 5.15816 18.652 5.43081 18.7515C5.70346 18.851 6.00859 18.795 6.22814 18.6052L8.40541 16.723C8.91499 16.7795 9.44697 16.808 10.0002 16.808C12.6739 16.808 14.8754 16.1389 16.4232 14.8531C17.9886 13.5527 18.8002 11.6907 18.8002 9.504C18.8002 7.31734 17.9886 5.45533 16.4232 4.15488C14.8754 2.86906 12.6739 2.19995 10.0002 2.19995Z" fill="black"/>
</svg>
